<?xml version="1.0" encoding="UTF-8"?>
<svg xmlns="http://www.w3.org/2000/svg" xmlns:xlink="http://www.w3.org/1999/xlink" width="493pt" height="569pt" viewBox="0 0 493 569" version="1.1">
<g id="surface1">
<path style=" stroke:none;fill-rule:evenodd;fill:rgb(255%,255%,255%);fill-opacity:1;" d="M 196.839844 116.878906 C 198.9375 116.082031 201.039063 115.460938 203.894531 115.457031 C 209.234375 115.449219 212.191406 117.117188 211.414063 122.433594 C 205.96875 126.34375 203.03125 122.484375 199.789063 120.125 C 196.675781 117.855469 197.078125 119.441406 196.839844 116.878906 Z M 137.738281 140.976563 L 139.476563 146.742188 C 139.988281 147.917969 140.246094 147.238281 140.140625 148.867188 C 141.597656 149.679688 140.53125 148.8125 141.390625 150.109375 C 144.164063 154.277344 145.453125 156.113281 149.53125 159.363281 C 152.257813 161.542969 158.839844 164.589844 162.34375 165.855469 L 193.078125 173.488281 C 194.871094 173.847656 197.496094 174.316406 199.191406 174.832031 C 204.027344 176.304688 214.59375 177.242188 218.871094 178.3125 C 224.429688 179.707031 230.191406 180.292969 235.246094 181.230469 L 244.617188 183.207031 C 246.507813 183.519531 249.027344 184.113281 251.140625 184.609375 L 263.296875 188.042969 C 267.34375 189.976563 271.039063 192.929688 273.414063 196.75 C 278.929688 205.605469 277.414063 215.875 273.003906 223.65625 C 271.871094 225.640625 271.761719 226.558594 270.03125 228.699219 C 267.496094 231.84375 265.210938 233.566406 261.996094 235.785156 C 260.4375 236.859375 258.078125 237.410156 256.878906 238.285156 C 258.171875 240.644531 259.835938 239.449219 262.359375 240.492188 C 266.796875 242.328125 271.175781 242.816406 273.714844 243.816406 C 275.972656 244.703125 276.828125 245.367188 279.726563 244.90625 C 282.097656 242.777344 281.828125 243.957031 286.367188 239.355469 C 290.671875 234.988281 290.390625 234.929688 292.984375 230.375 L 295.953125 223.890625 C 296.789063 221.699219 296.9375 221.746094 297.246094 218.996094 C 297.453125 217.09375 298.058594 215.734375 298.246094 213.636719 C 299.597656 198.976563 295.621094 188.289063 285.746094 179.125 L 284.296875 177.539063 C 282.996094 177.011719 283.886719 177.40625 282.871094 176.746094 L 279.996094 174.695313 C 279.007813 174.023438 277.066406 172.613281 276.085938 172.183594 L 267.265625 168.050781 C 261.480469 165.613281 253.566406 163.0625 247.402344 162.085938 L 192.496094 152.085938 C 190.910156 151.785156 191.132813 151.703125 189.894531 151.292969 C 184.328125 149.449219 169.898438 147.441406 164.507813 141.382813 C 158.933594 135.121094 164.65625 128.136719 173.238281 128.421875 C 177.945313 128.578125 178.96875 130.847656 182.078125 132.546875 C 191.347656 137.605469 203.382813 139.644531 214.15625 137.863281 C 219.828125 136.925781 229.027344 132.488281 229.511719 127.378906 C 230.246094 119.683594 215.945313 110.082031 210.222656 107.34375 C 204.863281 104.773438 205.070313 105.671875 202.878906 104.808594 C 201.636719 104.316406 202.089844 104.410156 200.53125 104.144531 C 192.386719 102.746094 186.40625 101.171875 177.390625 102.765625 C 174.152344 103.339844 169.605469 103.578125 166.355469 104.644531 C 156.753906 107.800781 149.128906 111.722656 143.246094 120.460938 C 138.941406 126.863281 137.289063 131.019531 137.738281 140.976563 Z M 170.996094 35.53125 C 170.339844 36.53125 169.351563 36.941406 168.300781 37.632813 C 167.394531 38.230469 167.769531 38.019531 166.800781 38.480469 L 159.648438 42.59375 C 149.613281 48.699219 141.089844 50.777344 130.855469 54.714844 C 129.585938 55.203125 128.46875 55.304688 127.339844 55.78125 L 91.496094 65.394531 C 86.648438 66.363281 81.773438 67.929688 76.464844 68.652344 C 74.082031 68.976563 71.589844 69.71875 69.304688 70.242188 C 66.476563 70.894531 64.015625 70.757813 61.011719 71.207031 C 60.539063 74.199219 64.574219 79.488281 66.28125 81.332031 C 73.839844 89.507813 86.417969 91.4375 97.28125 88.964844 C 98.570313 88.667969 99.804688 88.730469 100.972656 88.402344 C 102.636719 87.933594 102.476563 87.734375 104.691406 87.570313 C 106.097656 86.792969 108.039063 86.617188 109.691406 85.777344 L 128.617188 76.3125 C 129.574219 75.867188 130.460938 75.558594 131.261719 75.113281 L 135.964844 72.648438 C 136.605469 72.277344 137.4375 71.75 138.070313 71.4375 L 178.394531 51.417969 C 181.222656 50.152344 181.453125 51.625 181.453125 51.625 C 181.027344 53.535156 181.117188 52.738281 179.671875 53.554688 L 164.453125 61.375 C 158.214844 63.941406 153.644531 67.390625 147.226563 70.351563 C 141.453125 73.015625 132.695313 78.921875 126.722656 82.703125 C 124.597656 84.046875 116.117188 89.792969 114.90625 89.867188 C 114.285156 91.335938 111.84375 92.476563 110.554688 93.429688 C 109.421875 94.269531 107.296875 96.132813 106.503906 96.980469 C 104.289063 99.34375 100.984375 102.683594 102.078125 107.582031 C 102.933594 111.410156 106.539063 113.894531 110.128906 114.785156 C 114.558594 115.886719 119.632813 113.113281 123.246094 112.234375 L 142.328125 100.59375 C 143.675781 99.640625 144.730469 99.167969 146.152344 98.003906 L 153.4375 92.425781 C 159.539063 87.609375 161.621094 86.160156 167.445313 81.046875 C 169.722656 79.046875 171.613281 77.476563 174.203125 75.328125 C 176.046875 73.800781 179.660156 70.335938 182.355469 70.46875 C 182.578125 73.074219 181.554688 73.066406 180.183594 74.125 L 170.320313 82.421875 C 165.324219 86.683594 162.433594 88.90625 157.5625 93.515625 L 153.164063 97.839844 C 148.535156 102.296875 136.246094 116.195313 138.363281 121.300781 C 139.433594 120.617188 141.003906 117.480469 142.738281 115.78125 C 144.222656 114.324219 146.078125 111.910156 147.734375 110.582031 C 153.703125 105.789063 160.496094 102.5 168.117188 100.789063 L 176.691406 99.242188 C 181.808594 98.679688 180.28125 98.746094 185.664063 92.851563 C 186.507813 91.9375 187.367188 90.480469 188.519531 91.601563 C 190.964844 93.890625 183.6875 97.121094 185.53125 98.78125 C 186.289063 99.382813 187.804688 99.167969 189.136719 99.214844 C 190.859375 99.277344 191.648438 99.523438 193.289063 99.644531 C 197.804688 99.964844 198.597656 100.816406 201.011719 100.605469 C 200.964844 99.921875 200.351563 98.277344 200.003906 97.496094 C 199.507813 96.378906 199.253906 95.367188 198.789063 94.160156 C 197.824219 91.648438 197.171875 89.679688 196.933594 86.457031 C 196.464844 86.210938 196.519531 85.953125 196.617188 86.457031 C 196.066406 81.417969 195.765625 76.765625 196.144531 71.324219 L 197.761719 57.292969 C 198.363281 50.527344 197.324219 40.492188 191.804688 36.078125 C 189.914063 34.570313 190.371094 35.617188 189.441406 34.058594 C 187.539063 34.242188 186.800781 33.332031 184.9375 33.097656 C 176.699219 32.054688 173.265625 35.066406 170.996094 35.53125 Z M 309.15625 32.960938 C 304.355469 34.085938 300.378906 38.582031 298.476563 42.816406 C 296.265625 47.738281 295.644531 54.460938 295.671875 60.710938 C 295.683594 64.25 295.800781 67.792969 295.914063 71.328125 C 296.039063 74.898438 296.785156 76.65625 296.863281 80.394531 C 297.140625 93.625 296.953125 89.234375 295.269531 99.585938 C 299.421875 99.71875 301.996094 98.910156 306.023438 98.796875 C 305.882813 96.84375 305.960938 97.449219 305.03125 96.253906 C 302.675781 93.214844 305.496094 92.851563 306.527344 93.621094 C 307.941406 94.679688 310.714844 98.359375 312.289063 98.890625 C 314.476563 99.625 320.378906 99.394531 329.980469 102.429688 C 336.835938 104.664063 339.304688 106.398438 344.390625 110.269531 C 346.265625 111.699219 348.429688 113.828125 349.988281 115.671875 C 350.777344 116.605469 353.570313 121.261719 354.464844 121.929688 C 354.429688 117.136719 346.105469 106.9375 343.148438 103.226563 C 337.371094 95.980469 319.179688 80.199219 311.425781 74.320313 C 310.164063 73.367188 309.015625 72.820313 308.488281 71.28125 L 309.535156 70.21875 C 312.136719 70.453125 317.835938 75.894531 319.472656 77.242188 L 325.054688 81.539063 C 327.199219 83.425781 329.878906 85.578125 332.152344 87.707031 C 334.296875 89.71875 336.351563 91.902344 338.835938 94.253906 C 345.671875 100.726563 353.742188 106.242188 361.902344 110.980469 L 370.617188 115.265625 C 374.8125 115.667969 382.851563 119.402344 388.246094 114.4375 C 395.414063 107.855469 385.609375 99.90625 380.21875 95.289063 C 378.421875 93.753906 376.0625 92.109375 374.246094 90.648438 C 370.914063 87.960938 359.488281 79.835938 355.617188 77.792969 C 345.566406 72.492188 330.289063 62.265625 319.410156 55.722656 C 315.664063 53.472656 311.015625 51.496094 311.34375 48.894531 C 313.273438 48.207031 314.324219 49.09375 315.539063 49.832031 L 352.164063 72.222656 C 355.492188 74.664063 361.71875 78.140625 365.960938 79.957031 C 378.566406 85.351563 386.078125 89.132813 400.402344 88.707031 C 409.210938 88.441406 416.746094 84.097656 422.261719 78.035156 C 424.21875 75.882813 426.265625 73.753906 426.132813 71.359375 C 424.226563 70.734375 419.597656 70.8125 417.0625 70.542969 C 409.128906 69.699219 406.996094 68.898438 400.246094 67.601563 C 397.386719 67.050781 395.078125 66.3125 392.4375 65.589844 C 374.828125 60.785156 366.386719 56.566406 350.402344 49.027344 C 343.714844 45.875 337.960938 42.375 332.363281 37.882813 L 326.703125 33.683594 C 325.4375 32.957031 319.9375 32.476563 318.191406 32.265625 C 313.96875 31.753906 312.539063 32.699219 309.15625 32.960938 Z M 297.015625 117.882813 C 296.578125 118.742188 296.121094 118.773438 295.191406 119.425781 L 289.835938 123.132813 C 283.121094 126.917969 279.0625 121.402344 282.246094 117.847656 C 285.894531 113.773438 295.347656 115.429688 297.015625 117.882813 Z M 273.433594 112.710938 C 272.511719 113.964844 270.996094 114.964844 269.621094 116.230469 C 266.59375 119.019531 260.503906 124.691406 263.496094 129.082031 C 265.496094 132.019531 267.539063 133.9375 270.972656 135.558594 C 279.730469 139.691406 286.484375 138.742188 294.769531 137.808594 C 301.546875 137.046875 309.15625 133.78125 314.464844 129.996094 C 320.480469 125.703125 332.882813 131.023438 329.996094 138.394531 C 328.015625 143.46875 322.816406 144.957031 320.363281 146.113281 C 319.539063 146.5 318.679688 146.765625 317.910156 147.082031 C 316.722656 147.570313 314.011719 148.40625 312.605469 148.703125 C 310.511719 149.148438 309.371094 149.578125 307.285156 150.101563 L 301.828125 151.519531 C 298.835938 152.757813 283.496094 156.082031 279.472656 156.554688 C 274.710938 157.109375 258.523438 158.832031 255.558594 160.289063 C 255.996094 161.1875 260.09375 161.976563 261.269531 162.292969 C 263.347656 162.847656 264.9375 163.78125 266.78125 164.324219 C 277.121094 167.355469 285.914063 175.179688 286.871094 175.472656 C 288.890625 176.085938 297.539063 173.75 300.445313 173.523438 L 328.078125 166.449219 C 329.378906 166.054688 331.011719 165.480469 332.351563 164.996094 C 333.871094 164.441406 335.160156 163.710938 336.585938 163.246094 C 341.789063 159.824219 346.871094 157.703125 350.925781 150.550781 C 352.445313 147.867188 354.398438 144.164063 354.878906 140.9375 C 356.453125 130.25 350.214844 118.828125 342.726563 113.121094 C 337.804688 109.371094 335.785156 107.996094 329.4375 105.835938 C 327.910156 105.316406 325.910156 105.027344 324.804688 104.050781 C 322.589844 104.246094 320.0625 103.195313 317.738281 102.933594 C 309.914063 102.054688 311.222656 101.875 302.703125 102.132813 C 300.046875 102.210938 298.605469 102.917969 295.890625 103.140625 C 291.257813 103.523438 284.242188 105.710938 280.460938 108.125 C 278.511719 109.371094 275.164063 111.984375 273.433594 112.710938 Z M 197.605469 195.367188 C 197.414063 199.226563 192.644531 204.152344 195.761719 221.078125 L 197.460938 226.960938 C 197.734375 227.734375 197.847656 228.34375 198.105469 229.046875 L 203.941406 237.886719 C 206.496094 240.59375 208.113281 242.625 211.613281 245.003906 C 212.722656 245.761719 216.433594 248.234375 217.148438 249.042969 C 219.078125 249.40625 221.691406 251.050781 223.570313 251.886719 L 236.503906 256.4375 C 238.636719 257.042969 241.246094 257.617188 243.320313 258.277344 C 249.199219 260.144531 259.222656 260.605469 264.019531 263.730469 C 266.171875 265.132813 266.824219 264.929688 269.34375 267.109375 C 272.046875 269.457031 274.722656 273.605469 275.691406 278.175781 C 276.742188 283.125 275.902344 292.101563 272.914063 296.726563 C 272.308594 297.667969 271.894531 298.515625 271.128906 299.46875 C 268.800781 302.359375 264.472656 305.503906 260.972656 306.792969 C 258.820313 307.582031 256.484375 308.105469 255.601563 309.628906 C 257.652344 310.269531 260.328125 310.742188 262.539063 311.394531 L 269.261719 314.078125 L 271.296875 314.582031 C 274.039063 315.144531 275.152344 315.464844 278.519531 313.269531 C 284.828125 309.160156 289.882813 302.097656 292.15625 295.21875 C 293.828125 290.15625 293.324219 292.03125 293.980469 287.527344 C 294.601563 283.25 294.855469 286.113281 294.726563 278.773438 C 294.679688 276.21875 293.339844 270.347656 292.550781 268.175781 C 291.402344 264.996094 290.117188 262.242188 288.164063 259.632813 C 287.394531 258.605469 283.296875 254.175781 281.890625 253.253906 C 280.796875 252.917969 279.503906 251.800781 278.71875 251.261719 C 271.773438 246.488281 267.609375 246.3125 261.289063 244.058594 L 238.953125 237.667969 C 229.605469 235.175781 226.261719 232.574219 220.90625 226.574219 C 218.160156 223.496094 216.066406 216.945313 216.015625 212.160156 C 215.914063 202.242188 219.828125 196.347656 227.152344 190.71875 C 229.089844 189.226563 232.078125 187.429688 234.242188 186.746094 C 235.800781 186.253906 236.34375 186.464844 236.675781 184.898438 C 236.613281 184.867188 208.828125 179.710938 208.058594 180.054688 C 206.070313 180.941406 201.335938 188.449219 199.8125 191.070313 L 198.234375 194.46875 C 197.648438 195.535156 198.183594 194.753906 197.605469 195.367188 Z M 213.246094 252.816406 L 212.605469 253.453125 C 209.34375 256.769531 205.109375 261.542969 203.203125 265.984375 C 202.796875 266.945313 202.652344 267.832031 202.238281 268.882813 C 200.59375 273.035156 200.273438 276.507813 200.273438 281.070313 C 200.273438 284.53125 200.980469 291.101563 202.0625 293.875 C 204.164063 299.253906 203.085938 297.828125 206.238281 303.664063 C 209.261719 309.265625 213.757813 315.347656 219.230469 318.769531 C 226.640625 323.40625 229.921875 324.984375 239.523438 326.839844 C 241.664063 327.253906 242.585938 327.65625 245.132813 328.078125 C 246.578125 328.316406 249.242188 329.058594 250.886719 329.476563 C 257.035156 331.03125 266.023438 333.621094 269.914063 338.898438 C 270.425781 339.589844 270.902344 340.175781 271.347656 340.832031 C 275.621094 347.160156 274.328125 359.378906 269.039063 365.515625 C 267.660156 367.117188 266.71875 367.828125 265.328125 369 C 261.867188 371.921875 257.703125 372.753906 256.246094 374.113281 C 258.230469 375.164063 260.058594 375.277344 262.234375 376.105469 C 264.121094 376.824219 266.148438 377.464844 267.960938 378.261719 C 272.789063 380.386719 274.148438 378.875 279.160156 374.90625 C 284.871094 370.382813 290.558594 363.292969 291.914063 355 C 293.011719 348.316406 291.703125 340.445313 288.804688 334.710938 C 285.039063 327.277344 279.9375 322.429688 272.183594 318.714844 L 266.902344 316.011719 C 263.9375 315.519531 260.929688 314.359375 258.144531 313.53125 L 231.929688 305.964844 C 230.765625 305.4375 228.488281 303.738281 227.472656 302.902344 C 217.589844 294.789063 216.652344 280.398438 223.566406 270.015625 C 225.253906 267.484375 231.179688 262.539063 233.800781 261.363281 C 235.230469 260.722656 235.472656 261.230469 235.550781 259.488281 C 234.953125 259.140625 230.996094 257.976563 230.019531 257.671875 L 219.210938 253.28125 C 216.464844 251.84375 216.320313 251.5 213.246094 252.816406 Z M 220.558594 382.1875 L 226.265625 384.117188 C 227.695313 384.648438 230.929688 385.554688 232.308594 385.75 L 241.175781 387.71875 C 243.664063 388.191406 247.660156 388.589844 250.472656 389.460938 C 252.570313 390.113281 254.0625 390.578125 256.328125 391.214844 L 261.59375 393.429688 C 264.570313 394.890625 267.746094 397.238281 269.796875 399.894531 C 270.976563 401.429688 271.421875 403.5625 271.988281 405.371094 C 274.074219 412.027344 270.394531 422.265625 264.054688 426.441406 C 262.371094 427.550781 260.746094 428.273438 258.964844 428.960938 C 253.257813 431.171875 254.730469 429.609375 253.925781 432.09375 C 258.566406 433.539063 261.433594 434.476563 265.851563 436.53125 C 267.851563 437.460938 267.71875 438.089844 270.53125 437.832031 C 270.890625 437.339844 273.214844 436.011719 273.992188 435.558594 C 275.464844 434.707031 276.414063 433.714844 277.550781 432.710938 C 280.035156 430.519531 281.40625 427.941406 283.070313 425.371094 C 286.171875 420.578125 287.679688 408.1875 285.132813 400.453125 L 282.339844 393.414063 C 281.089844 390.90625 278.246094 387.832031 275.96875 386.15625 L 268.273438 381.722656 C 264.726563 380.503906 262.214844 379.546875 258.691406 378.46875 C 253.886719 376.996094 247.273438 376.230469 242.984375 374.855469 C 241.867188 374.496094 239.050781 373.777344 237.894531 373.539063 C 223.621094 370.605469 216.433594 355.769531 222.84375 342.363281 C 224.183594 339.5625 226.328125 336.929688 228.484375 335.1875 C 230.320313 333.703125 229.679688 333.835938 231.566406 332.679688 C 235.433594 330.3125 234.835938 331.386719 235.214844 329.53125 C 235.140625 329.453125 235.003906 329.257813 234.953125 329.335938 L 234.410156 328.992188 C 234.328125 328.949219 234.21875 328.898438 234.121094 328.855469 C 232.523438 328.132813 229.035156 327.46875 225.449219 325.804688 C 223.855469 325.0625 222.828125 324.660156 220.945313 323.808594 C 215.535156 321.355469 217.835938 318.414063 210.722656 326.535156 C 208.460938 329.121094 207.585938 330.355469 206.023438 333.628906 L 204.398438 337.671875 C 199.351563 350.417969 204.53125 367.800781 214.242188 377.121094 C 217.914063 380.648438 220.050781 381.679688 220.558594 382.1875 Z M 480.671875 109.917969 C 481.453125 109.546875 481.371094 109.449219 482.011719 108.992188 C 483.023438 108.269531 483.003906 108.125 483.835938 108.132813 C 484.390625 107.054688 483.820313 107.910156 484.613281 107.058594 C 486.320313 105.222656 492.953125 100.34375 493.015625 96.847656 C 490.425781 96.316406 487.132813 96.164063 483.546875 95.195313 C 482.734375 94.976563 482.96875 94.804688 481.757813 94.480469 C 481.027344 94.285156 480.246094 94.238281 479.511719 94.078125 L 466.429688 90.863281 C 463.8125 90.222656 460.339844 89.332031 457.699219 88.820313 C 451.113281 87.539063 426.578125 79.683594 423.121094 80.945313 L 421.441406 82.503906 C 419.183594 84.695313 418.890625 84.726563 416.039063 86.613281 C 412.726563 88.808594 410.574219 89.210938 406.914063 90.378906 C 398.128906 93.171875 387.714844 89.734375 384.3125 90.070313 C 384.617188 90.71875 384.550781 90.515625 385.234375 90.921875 C 385.402344 91.019531 386.328125 91.492188 386.480469 91.566406 C 394.910156 95.75 402.1875 99.328125 410.859375 102.972656 C 412.683594 103.738281 414.644531 104.496094 416.421875 105.316406 C 423.824219 108.71875 428.703125 109.441406 434.183594 111.441406 C 437.800781 112.761719 450.679688 115.121094 454.152344 115.273438 C 471.460938 116.035156 477.195313 110.640625 480.671875 109.917969 Z M 30.105469 117.628906 C 38.472656 117.628906 44.234375 115.945313 51.566406 114.308594 C 56.824219 113.136719 67.414063 107.117188 73.179688 105.183594 L 76.269531 103.796875 C 80.652344 101.117188 95.289063 95.285156 98.246094 93.632813 C 98.316406 93.59375 98.410156 93.53125 98.480469 93.496094 L 98.976563 93.226563 C 99.484375 92.957031 99.527344 92.976563 99.976563 92.707031 L 101.527344 91.503906 C 101.566406 91.367188 101.6875 91.371094 101.761719 91.300781 C 99.429688 91.285156 97.78125 91.890625 95.59375 92.070313 C 89.394531 92.578125 80.535156 92.699219 75.191406 90.519531 C 66.117188 86.828125 65.109375 83.171875 62.828125 81.695313 C 61.136719 80.601563 61.933594 81.273438 60.285156 81.707031 C 59.179688 81.996094 58.40625 81.988281 57.355469 82.351563 L 35.3125 88.53125 C 31.167969 89.347656 27.828125 90.042969 23.703125 91.011719 C 22.414063 91.3125 21.960938 91.667969 20.914063 91.851563 L 5.859375 94.273438 C 4.375 94.367188 1.164063 94.992188 0.078125 95.40625 C 0.0664063 98.730469 2.109375 102.871094 3.417969 105.277344 C 6.25 110.445313 12.695313 114.179688 18.191406 116.148438 C 21.761719 117.433594 25.859375 117.628906 30.105469 117.628906 Z M 211.089844 393.875 C 211.011719 394.6875 210.085938 395.625 209.703125 396.269531 C 209.089844 397.316406 208.773438 398.257813 208.152344 399.34375 C 207.359375 400.730469 206.070313 403.828125 205.925781 405.613281 C 205.703125 408.382813 205.789063 411.570313 205.898438 414.355469 C 206.058594 418.46875 206.371094 416.675781 207.261719 419.730469 C 207.652344 421.074219 207.609375 420.265625 207.566406 421.425781 C 208.445313 422.035156 209.964844 425.660156 210.679688 426.871094 C 215.863281 435.632813 225.730469 441.484375 235.757813 443.546875 C 240.109375 444.4375 244.601563 446.246094 248.980469 446.847656 C 257.890625 448.070313 267.023438 451.800781 267.246094 462.046875 C 267.492188 473.535156 261.351563 477.878906 252.324219 480.578125 C 253.601563 482.433594 257.773438 482.859375 260.214844 483.765625 C 265.988281 485.914063 263.195313 485.410156 268.640625 483.789063 L 272.460938 480.246094 C 274.386719 478.390625 274.773438 477.753906 276.230469 475.679688 C 278.378906 472.625 279.390625 467.277344 279.347656 462.425781 C 279.296875 456.949219 277.914063 453.398438 275.898438 449.570313 C 273.671875 445.347656 271.121094 444.28125 267.882813 441.242188 C 266.09375 440.757813 264.613281 439.585938 262.789063 438.777344 C 259.144531 437.160156 250.464844 434.222656 246.910156 433.546875 C 241.0625 432.4375 241.429688 432.085938 238.429688 431.339844 C 235.964844 430.726563 233.085938 429.289063 230.972656 428.207031 C 226.359375 425.839844 223.273438 422.523438 221.058594 417.28125 C 219.578125 413.777344 220.078125 407.773438 221.835938 403.925781 C 221.886719 403.816406 222.050781 403.519531 222.105469 403.417969 C 223.6875 400.507813 225.054688 399.070313 227.671875 396.855469 C 228.53125 396.128906 230.730469 394.667969 231.984375 393.980469 C 232.78125 393.539063 233.378906 393.382813 234.289063 392.894531 C 236.523438 391.699219 235.742188 392.644531 235.945313 390.601563 L 225.246094 387.597656 C 224.464844 387.253906 223.839844 386.742188 222.015625 386.558594 C 217.515625 386.097656 213.515625 392.605469 211.089844 393.875 Z M 238.914063 156.328125 C 243.039063 158.25 250.867188 158.492188 253.671875 156.703125 L 253.855469 47.542969 C 251.878906 47.152344 248.449219 47.625 246.300781 47.59375 C 243.390625 47.550781 241.011719 46.671875 239.054688 46.699219 Z M 52.671875 143.699219 L 52.753906 143.382813 C 69.535156 145.339844 74.253906 141.425781 87.5625 135.234375 L 116.226563 120.421875 C 117.464844 118.96875 119.558594 118.753906 120.414063 116.578125 C 117.660156 116.589844 112.9375 118.703125 108.300781 117.28125 C 105.101563 116.300781 102.636719 114.304688 101.089844 112.0625 C 97.058594 106.207031 99.128906 101.269531 103.222656 96.367188 L 104.484375 94.277344 C 102.234375 94.546875 97.089844 97.832031 94.90625 98.980469 L 81.394531 106.679688 C 73.503906 111.261719 54.933594 120.011719 51.152344 125.285156 C 49.328125 127.835938 47.351563 131.507813 47.085938 135.300781 C 46.84375 138.734375 48.011719 140.644531 50.414063 142.210938 C 50.867188 142.507813 51.144531 142.660156 51.554688 142.925781 L 52.378906 143.492188 C 52.429688 143.40625 52.582031 143.625 52.671875 143.699219 Z M 243.277344 1.21875 C 241.101563 2.117188 240.800781 1.066406 235.511719 4.164063 C 234.007813 5.042969 231.023438 7.992188 229.882813 9.449219 C 226.289063 14.035156 224.984375 20.222656 225.910156 27.40625 C 226.449219 31.59375 230.746094 37.570313 234.515625 40.304688 C 238.828125 43.4375 245.132813 45.496094 252.222656 44.167969 C 257.539063 43.171875 260.390625 40.480469 265.023438 35.507813 C 267.472656 32.882813 270.804688 23.34375 268.902344 18.398438 C 267.636719 15.101563 268.703125 15.707031 265.835938 10.871094 C 263.804688 7.445313 259.585938 4.097656 256.71875 2.660156 C 253.566406 1.074219 246.3125 -0.0429688 243.277344 1.21875 Z M 376.308594 121.027344 C 377.699219 120.925781 390.035156 128.480469 392.019531 129.636719 C 400.140625 134.355469 410.203125 139.835938 420.472656 141.050781 C 424.664063 141.253906 435.773438 142.871094 439.34375 137.578125 C 445.328125 128.710938 431.34375 119.691406 425.585938 115.816406 C 417.910156 110.644531 404.769531 104.386719 395.753906 100.210938 L 390.644531 97.765625 C 389.023438 96.960938 387.054688 95.921875 385.234375 95.5625 C 385.589844 96.949219 389.058594 99.804688 391.070313 102.578125 C 392.566406 104.640625 394.945313 108.191406 393.539063 111.859375 C 392.730469 113.984375 389.800781 117.25 387.628906 118.308594 C 383.679688 120.234375 381.34375 119.566406 376.550781 119.796875 C 376.269531 120.222656 376.179688 119.578125 376.308594 121.027344 Z M 219.996094 444.308594 C 219.953125 444.375 219.902344 444.472656 219.878906 444.507813 C 218.328125 447.03125 217.9375 446.367188 215.984375 449.953125 C 214.71875 452.28125 214.0625 454.066406 213.371094 456.878906 C 210.613281 468.160156 212.914063 477.53125 222.019531 484.816406 C 227.546875 489.246094 238.726563 493.707031 245.9375 494.664063 C 251.808594 495.445313 258.316406 495.898438 263.339844 500.667969 C 268.613281 505.679688 267.976563 515.484375 264.175781 522.742188 C 263.238281 524.527344 261.242188 527.40625 260.941406 529.1875 C 264.773438 529.164063 269.226563 525.484375 271.429688 523.136719 C 274.128906 520.269531 274.691406 518.417969 275.746094 515.074219 C 276.144531 513.808594 276.035156 513.007813 276.136719 511.644531 C 276.574219 505.789063 277.054688 502.496094 274.277344 498.085938 C 269.726563 490.859375 269.277344 493.269531 266.246094 490.003906 C 264.996094 489.722656 263.199219 488.703125 261.835938 488.101563 C 260.304688 487.429688 259.152344 487.027344 257.5625 486.378906 L 239.101563 481.269531 C 235.035156 480.3125 234.191406 479.425781 231.246094 477.492188 C 226.019531 474.0625 222.304688 468.535156 222.984375 462.085938 C 223.914063 453.25 231.6875 449.339844 232.488281 448.417969 C 231.859375 446.613281 230.246094 446.832031 226.839844 445.15625 C 225.144531 444.320313 223.488281 443.179688 221.753906 443.488281 C 221.121094 443.601563 221.308594 443.597656 220.824219 443.808594 Z M 134.785156 146.125 C 135.03125 142.726563 134.316406 138.964844 134.453125 135.300781 C 134.730469 127.820313 135.886719 128.605469 135.925781 126.222656 C 135.992188 122.46875 133.144531 122.496094 137.488281 113.539063 C 138.1875 112.097656 138.855469 111.558594 139.070313 109.636719 C 136.324219 110.019531 132.902344 113.152344 130.601563 114.632813 C 127.910156 116.363281 125.261719 117.988281 122.597656 119.550781 C 114.566406 124.265625 100.921875 136.488281 95.941406 144.351563 C 94.703125 146.304688 92.046875 150.964844 94.0625 153.925781 C 95.746094 156.394531 99.03125 157.6875 102.800781 157.6875 C 107.328125 157.683594 113.019531 156.375 116.863281 154.988281 C 124.203125 152.339844 128.484375 149.496094 134.785156 146.125 Z M 380.039063 128.035156 C 376.324219 125.175781 355.722656 110.144531 351.910156 109.898438 C 352.300781 112.0625 354.941406 115.011719 355.890625 117.261719 C 361.804688 131.277344 356.382813 124.535156 357.605469 130.25 C 359.601563 139.546875 357.382813 142.898438 357.402344 146.167969 C 362.835938 148.617188 363.425781 151.546875 376.328125 155.625 C 381.886719 157.382813 397.769531 160.523438 399.636719 155.246094 C 401.121094 151.042969 396.109375 144.566406 394.257813 142.210938 C 391.546875 138.757813 388.28125 135.3125 385.085938 132.449219 C 383.277344 130.832031 381.871094 129.441406 380.039063 128.035156 Z M 266.664063 107.453125 C 265.296875 110.15625 257.621094 108.996094 256.960938 111.574219 C 256.636719 112.847656 256.46875 129.105469 257.179688 129.792969 C 257.476563 130.082031 257.710938 130.398438 258.675781 130.042969 C 259.9375 129.578125 259.492188 129.644531 259.554688 128.527344 C 259.804688 124.097656 259.691406 121.75 263.941406 116.964844 C 264.828125 115.96875 266.632813 114.132813 267.933594 113.027344 C 269.714844 111.515625 274.824219 107.277344 276.96875 106.628906 C 280.070313 104.597656 283.246094 103.023438 287.496094 101.910156 C 287.789063 101.832031 290.085938 101.109375 290.359375 100.960938 C 292.03125 100.066406 292.789063 94.210938 292.996094 92.164063 C 294.011719 82.09375 292.402344 73.203125 292.179688 62.984375 C 291.976563 53.636719 292.558594 45.484375 297.660156 37.855469 C 300.121094 34.175781 302.453125 32.761719 305.828125 30.835938 C 311.273438 27.730469 314.621094 29.804688 318.496094 28.421875 C 318.609375 26.730469 314.816406 24.640625 313.558594 24.050781 C 311.328125 23.011719 309.488281 21.964844 306.515625 21.90625 C 289.695313 21.570313 284.429688 39.234375 284.265625 54.65625 C 284.097656 70.503906 287.738281 71.152344 283.65625 88.328125 C 282.949219 91.304688 279.316406 98.023438 277.386719 100.09375 C 275.578125 102.035156 269.550781 107.492188 266.664063 107.453125 Z M 238.972656 562.003906 C 239.445313 564.878906 241.472656 566.988281 244.414063 567.414063 C 254.925781 568.933594 253.898438 560.871094 253.898438 555.566406 L 253.914063 502.546875 C 253.960938 498.6875 254.828125 499.609375 247.574219 498.199219 C 244.117188 497.527344 239.882813 496.25 239.070313 498.453125 C 238.886719 498.949219 238.496094 559.136719 238.972656 562.003906 Z M 194.324219 34.347656 C 196.238281 35.15625 197.441406 37.097656 198.367188 38.964844 L 200.359375 45.847656 C 201.066406 52.226563 201.007813 55.523438 200.429688 62.046875 C 199.398438 73.757813 197.980469 81.660156 201.566406 92.679688 L 203.871094 98.699219 C 206.277344 104.25 208.992188 102.066406 216.738281 107.296875 C 222.828125 111.414063 229.21875 115.8125 232.230469 122.53125 C 233.480469 125.320313 232.394531 127.933594 235.699219 127.765625 C 236.453125 126.03125 236.46875 112.46875 235.664063 111.136719 C 234.882813 110.347656 234.972656 110.476563 233.570313 110.125 L 226.53125 107.15625 C 222.054688 107.257813 212.414063 96.339844 210.308594 87.914063 C 209.847656 86.078125 209.539063 86.433594 209.128906 84.777344 C 207.683594 78.960938 207.78125 69.445313 208.289063 63.484375 C 208.53125 60.605469 209.089844 58.785156 209.152344 55.796875 C 209.289063 49.066406 209.296875 45.011719 208.066406 39.089844 C 206.59375 31.992188 198.902344 21.121094 188.558594 23.375 C 185.03125 24.140625 181.804688 25.566406 178.976563 27.449219 C 176.738281 28.941406 177.175781 28.613281 176.914063 29.765625 C 180.847656 29.980469 184.03125 29.332031 187.785156 30.359375 C 189.371094 30.792969 193.351563 32.875 194.324219 34.347656 Z M 239.132813 189.042969 C 238.660156 196.027344 238.8125 221.628906 239.027344 231.886719 C 239.070313 233.957031 238.847656 233.808594 240.398438 234.351563 C 244.851563 235.910156 248.769531 236.449219 253.621094 235.339844 L 253.539063 188.976563 C 249.023438 187.871094 243.121094 186.148438 239.132813 189.042969 Z M 239.234375 262.613281 C 238.578125 264.890625 238.539063 301.613281 239.152344 305.25 C 240.535156 305.816406 244.589844 306.808594 246.4375 307.152344 C 248.316406 307.5 252.425781 306.761719 253.496094 305.75 C 254.238281 304.296875 254.246094 266.042969 253.53125 263.976563 C 252.453125 263.523438 251.429688 263.398438 250.058594 263.226563 C 246.589844 262.796875 244.027344 260.878906 239.234375 262.613281 Z M 253.757813 333.824219 C 251.363281 333.273438 248.761719 332.699219 246.34375 332.078125 C 243.726563 331.410156 243.773438 330.859375 240.914063 332.09375 C 239.734375 332.601563 240.199219 332.222656 239.394531 332.894531 C 238.804688 334.113281 238.648438 367.34375 239.269531 370.042969 C 241.890625 371.707031 250.664063 373.277344 253.382813 370.644531 C 254.675781 368.152344 252.6875 339.671875 253.757813 333.824219 Z M 238.488281 427.476563 C 240.996094 429.3125 241.597656 429.324219 246.324219 429.003906 C 248.519531 428.859375 248.4375 428.386719 250.152344 428.085938 C 252.867188 427.613281 251.808594 428.125 253.804688 426.832031 C 254.183594 419.066406 253.882813 404.972656 253.882813 396.546875 C 253.882813 392.789063 253.289063 393.917969 250.445313 393.113281 C 248.429688 392.546875 247.304688 391.789063 244.65625 392.675781 C 243.523438 393.054688 240.226563 393.765625 239.449219 394.28125 C 237.914063 395.300781 238.476563 397.980469 238.480469 399.953125 C 238.492188 409.121094 238.394531 418.320313 238.488281 427.476563 Z M 239.273438 477.761719 C 241.835938 478.429688 244.371094 479.417969 247.132813 478.480469 C 249.839844 477.5625 251.578125 477.882813 253.804688 476.417969 L 253.765625 451.53125 C 252.101563 450.75 245.175781 449.4375 242.574219 448.960938 C 241.246094 448.714844 239.394531 447.714844 239.066406 449.238281 L 238.914063 455.988281 C 238.914063 461.429688 238.46875 474.015625 239.273438 477.761719 Z M 256.945313 156.074219 C 259.371094 156.3125 280.34375 152.910156 283.988281 152.085938 C 283.539063 150.449219 284.371094 151.605469 282.761719 150.296875 C 278.441406 146.777344 277.976563 146.59375 274.050781 141.636719 C 270.914063 137.679688 265.179688 137.628906 262.464844 133.191406 C 259.882813 133.191406 258.867188 133.628906 256.808594 134.4375 C 256.679688 139.289063 256.550781 151.722656 256.945313 156.074219 Z M 211.820313 152.71875 C 213.269531 153.457031 229.277344 154.964844 231.828125 155.828125 C 237.0625 157.601563 236.027344 155.121094 236.011719 151.582031 L 235.960938 132.328125 C 234.523438 131.347656 234.246094 130.679688 231.535156 131.019531 C 230.847656 132.847656 227.839844 135.523438 226.523438 136.386719 C 220.679688 140.238281 222.285156 141.457031 216.632813 147.265625 C 213.027344 150.96875 211.828125 150.714844 211.820313 152.71875 Z M 229.878906 528.910156 C 229.769531 528.492188 229.4375 527.265625 229.210938 526.738281 C 229.121094 526.546875 228.894531 526.113281 228.6875 525.8125 C 228.648438 525.75 228.578125 525.660156 228.539063 525.601563 L 226.867188 523.042969 C 223.09375 516.042969 223.804688 507.429688 228.960938 501.132813 C 230.035156 499.820313 230.589844 499.320313 232.039063 498.132813 C 233.132813 497.238281 232.730469 497.648438 233.945313 496.960938 C 234.894531 496.425781 235.066406 496.195313 235.203125 494.988281 L 228.511719 492.339844 C 224.8125 490.730469 223.628906 491.269531 219.714844 496.03125 C 217.90625 498.230469 215.363281 503.554688 215.015625 506.003906 C 214.578125 509.039063 215.414063 511.847656 215.867188 514.625 C 216.890625 520.875 225.820313 528.789063 229.878906 528.910156 Z M 339.722656 165.96875 C 340.3125 166.394531 339.683594 166.070313 340.65625 166.394531 C 342.851563 167.121094 338.914063 165.960938 341.324219 166.5625 C 341.910156 166.710938 341.914063 166.625 342.527344 166.824219 C 343.867188 167.261719 342.976563 167.308594 344.746094 167.613281 L 350.027344 168.753906 C 371.828125 170.75 359.023438 151.175781 355.347656 149.996094 C 353.078125 152.816406 351.414063 156.058594 348.394531 159.027344 C 347.054688 160.34375 345.6875 161.457031 344.015625 162.566406 C 342.402344 163.636719 340.523438 164.476563 339.722656 165.96875 Z M 136.910156 156.878906 C 136.242188 159.316406 135.492188 160.585938 136.398438 163.386719 C 137.476563 166.710938 138.289063 165.890625 139.53125 167.925781 C 141.699219 168.917969 144.351563 169.765625 147.496094 169.558594 L 154.921875 167.105469 C 153.6875 164.578125 148.503906 164.371094 142.652344 157.125 C 141.664063 155.898438 140.101563 153.789063 138.773438 153.40625 C 137.71875 154.175781 137.269531 155.136719 136.910156 156.878906 Z M 197.128906 141.359375 C 196.996094 143.289063 197.015625 144.226563 197.632813 145.761719 C 199.347656 150.03125 201.886719 152.609375 207.527344 150.933594 C 210.023438 150.191406 217.882813 143.714844 217.839844 140.660156 C 214.101563 140.855469 212.171875 141.742188 208.0625 141.832031 C 204.480469 141.910156 199.953125 141.03125 197.128906 141.359375 Z M 278.335938 141.265625 C 278.476563 143.613281 280.289063 144.6875 281.550781 145.867188 C 286.03125 150.042969 293.109375 153.214844 297.046875 147.789063 C 297.953125 146.535156 299.09375 144.070313 298.527344 141.765625 C 298.074219 139.921875 294.742188 141.121094 292.867188 141.34375 C 286.859375 142.070313 284.078125 141.496094 278.335938 141.265625 Z M 311.519531 136.058594 C 312.402344 138.023438 321.46875 141.960938 324.128906 140.40625 C 325.390625 139.667969 326.71875 138.445313 326.921875 136.746094 C 327.328125 133.386719 322.8125 131.679688 319.746094 131.757813 C 317.328125 131.820313 316.636719 132.304688 315.257813 133.472656 C 313.953125 134.578125 312.605469 134.941406 311.519531 136.058594 Z M 180.441406 136.058594 C 179.851563 134.769531 173.175781 129.171875 167.839844 132.96875 C 164.886719 135.070313 164.839844 137.714844 168.046875 140.109375 C 169.828125 141.441406 170.644531 140.960938 172.585938 140.265625 C 174.847656 139.457031 179.433594 137.640625 180.441406 136.058594 Z M 301.425781 140.042969 C 301.824219 141.980469 303.253906 142.6875 304.507813 143.71875 C 305.894531 144.855469 306.929688 146.464844 308.714844 146.335938 C 308.769531 146.332031 313.9375 145.140625 314.390625 144.972656 C 315.996094 144.367188 318.160156 144.210938 318.414063 142.492188 C 315.152344 141.011719 315.523438 141.894531 310.453125 138.976563 C 308.046875 137.585938 308.472656 137.53125 305.980469 138.453125 C 304.355469 139.054688 302.933594 139.441406 301.425781 140.042969 Z M 174.0625 142.492188 C 174.757813 144.316406 182.558594 146.089844 183.414063 145.964844 C 184.871094 145.753906 190.347656 140.601563 190.496094 140.222656 C 190.179688 139.539063 185.15625 136.78125 182.675781 137.980469 L 181.980469 138.421875 C 176.664063 141.714844 176.796875 140.957031 174.0625 142.492188 Z M 188.285156 147.417969 C 189.882813 148.21875 194.4375 149.769531 196.410156 149.394531 C 195.171875 147.089844 194.789063 144.90625 194.589844 141.535156 C 192.515625 141.410156 188.398438 145.71875 188.285156 147.417969 Z M 300.621094 146.515625 L 300.359375 148.535156 C 302.238281 148.523438 302.742188 148.382813 302.726563 146.660156 C 300.9375 145.550781 301.078125 146.28125 300.621094 146.515625 Z M 300.621094 146.515625 "/>
</g>
</svg>
